<?xml version="1.0" encoding="UTF-8"?>
<svg version="1.1" xmlns="http://www.w3.org/2000/svg" width="1920" height="1080">
<path d="M0 0 C633.6 0 1267.2 0 1920 0 C1920 356.4 1920 712.8 1920 1080 C1286.4 1080 652.8 1080 0 1080 C0 723.6 0 367.2 0 0 Z " fill="#FEFEFE" transform="translate(0,0)"/>
<path d="M0 0 C1.22460938 -0.00193359 2.44921875 -0.00386719 3.7109375 -0.00585938 C5.61746094 0.02991211 5.61746094 0.02991211 7.5625 0.06640625 C8.83351563 0.05544922 10.10453125 0.04449219 11.4140625 0.03320312 C20.52512558 0.10513257 20.52512558 0.10513257 24.42553711 2.07446289 C27.61429496 5.88618155 27.26371802 9.23675967 27.19140625 14.06640625 C27.19381821 14.98349365 27.19623016 15.90058105 27.19871521 16.84545898 C27.19773683 18.78210784 27.18434543 20.71878469 27.15942383 22.65527344 C27.12511693 25.61880541 27.13876395 28.57935524 27.15820312 31.54296875 C27.15130453 33.42579394 27.14163203 35.30861143 27.12890625 37.19140625 C27.13386612 38.07691162 27.13882599 38.96241699 27.14393616 39.87475586 C27.07172158 43.64892598 26.99076053 45.95440719 24.93920898 49.18554688 C21.8013691 51.09113592 19.63237291 51.14601099 15.96875 51.16015625 C14.69128906 51.1653125 13.41382813 51.17046875 12.09765625 51.17578125 C11.43523926 51.16740234 10.77282227 51.15902344 10.09033203 51.15039062 C8.06811552 51.12896575 6.04945039 51.15020364 4.02734375 51.17578125 C2.74988281 51.170625 1.47242188 51.16546875 0.15625 51.16015625 C-1.01228516 51.15564453 -2.18082031 51.15113281 -3.38476562 51.14648438 C-7.03443694 50.52769813 -8.17670918 49.49435829 -10.4375 46.62890625 C-12.95769445 41.58851736 -11.75066406 33.69950242 -11.78759766 28.09008789 C-11.80415215 26.24620945 -11.83143569 24.40239506 -11.86962891 22.55883789 C-11.92445665 19.8982622 -11.94627979 17.23918988 -11.9609375 14.578125 C-11.98360687 13.75712814 -12.00627625 12.93613129 -12.02963257 12.09025574 C-12.01431257 7.9298475 -11.77067599 6.10121738 -9.30712891 2.60888672 C-5.9034491 0.26042294 -4.10555802 -0.0026698 0 0 Z " fill="#F54803" transform="translate(948.4375,520.37109375)"/>
<path d="M0 0 C11.02633708 -0.88341573 11.02633708 -0.88341573 15.19921875 0.984375 C17.83263262 3.2543395 18.82586481 5.10146243 19.48828125 8.51953125 C19.6267669 11.22197973 19.69464578 13.37929091 19 16 C16.9609375 17.80078125 16.9609375 17.80078125 15 19 C16.62073334 24.1628321 16.62073334 24.1628321 19 29 C19.66 29.33 20.32 29.66 21 30 C21.11601563 28.89527344 21.23203125 27.79054688 21.3515625 26.65234375 C21.9950002 21.53080544 23.14573543 16.57102142 24.375 11.5625 C24.68824219 10.19834961 24.68824219 10.19834961 25.0078125 8.80664062 C25.21921875 7.94361328 25.430625 7.08058594 25.6484375 6.19140625 C25.92953369 5.01880249 25.92953369 5.01880249 26.21630859 3.82250977 C26.60423584 2.92036743 26.60423584 2.92036743 27 2 C31.25061356 0.58312881 33.71851625 1.80679961 38 3 C37.68817931 4.41681634 37.37551263 5.83344651 37.0625 7.25 C36.88847656 8.03890625 36.71445312 8.8278125 36.53515625 9.640625 C36.052444 11.76878703 35.53836822 13.88532842 35 16 C37.64 16.33 40.28 16.66 43 17 C43.38218767 18.65614657 43.71395102 20.32457024 44 22 C43.505 22.495 43.505 22.495 43 23 C41.30858344 22.91036938 39.62040398 22.75422324 37.9375 22.5625 C36.308125 22.376875 34.67875 22.19125 33 22 C32.34 25.96 31.68 29.92 31 34 C29.618125 33.690625 28.23625 33.38125 26.8125 33.0625 C20.58233945 31.80216623 14.33605969 31.37738287 8 31 C7.01 28.03 6.02 25.06 5 22 C3.35 22 1.7 22 0 22 C0 19.69 0 17.38 0 15 C2.64 15 5.28 15 8 15 C8 12.03 8 9.06 8 6 C5.36 6 2.72 6 0 6 C0 4.02 0 2.04 0 0 Z " fill="#4D4D4D" transform="translate(956,390)"/>
<path d="M0 0 C1.96229016 3.72709744 3.91913212 7.45702888 5.875 11.1875 C6.70837891 12.77014648 6.70837891 12.77014648 7.55859375 14.38476562 C8.09355469 15.40634766 8.62851562 16.42792969 9.1796875 17.48046875 C9.67194824 18.41785889 10.16420898 19.35524902 10.67138672 20.32104492 C11.9215288 22.84177426 12.9958438 25.37294405 14 28 C13.18015625 28.38671875 12.3603125 28.7734375 11.515625 29.171875 C10.43796875 29.69265625 9.3603125 30.2134375 8.25 30.75 C7.18265625 31.26046875 6.1153125 31.7709375 5.015625 32.296875 C2.12562079 33.92905354 0.29742592 35.65140646 -2 38 C-2.763125 37.979375 -3.52625 37.95875 -4.3125 37.9375 C-8.42614974 38.03316627 -10.8828128 40.48469044 -14 43 C-16 40 -16 40 -15.75 38 C-15 36 -15 36 -13 33 C-13.84820313 32.74476563 -14.69640625 32.48953125 -15.5703125 32.2265625 C-19.23752093 30.91505516 -22.46574557 29.25356877 -25.875 27.375 C-27.02742187 26.74335938 -28.17984375 26.11171875 -29.3671875 25.4609375 C-30.67042969 24.73777344 -30.67042969 24.73777344 -32 24 C-29.36327434 18.60365044 -29.36327434 18.60365044 -27 17 C-22.53965305 17.41540502 -19.13195098 18.69604654 -15.1640625 20.72265625 C-14.10058594 21.26083984 -13.03710938 21.79902344 -11.94140625 22.35351562 C-10.84699219 22.91748047 -9.75257813 23.48144531 -8.625 24.0625 C-6.94857422 24.91424805 -6.94857422 24.91424805 -5.23828125 25.78320312 C-2.48842747 27.18163304 0.25740261 28.58740669 3 30 C2.48050781 28.96101563 1.96101562 27.92203125 1.42578125 26.8515625 C-4.28710938 15.42578125 -4.28710938 15.42578125 -10 4 C-3.375 0 -3.375 0 0 0 Z " fill="#4B4B4B" transform="translate(883,410)"/>
<path d="M0 0 C2.375 1.5625 2.375 1.5625 4 4 C4.73283481 9.96736914 4.73283481 9.96736914 2.625 12.9375 C1 14 1 14 -1 14 C-0.98428955 14.96824707 -0.9685791 15.93649414 -0.95239258 16.93408203 C-0.89786015 20.54581294 -0.86356581 24.15750785 -0.83520508 27.76953125 C-0.82017131 29.32916394 -0.79973865 30.88875472 -0.77368164 32.44824219 C-0.73705789 34.69737116 -0.72021979 36.94593847 -0.70703125 39.1953125 C-0.69154739 39.8861795 -0.67606354 40.57704651 -0.66011047 41.28884888 C-0.65851961 45.92418786 -1.54750887 49.06990253 -4 53 C-7.83920723 54.91960362 -12.57892267 54.41722271 -16.8125 54.62109375 C-20.08981351 54.67735002 -20.08981351 54.67735002 -22 57 C-25.13704316 57.333728 -27.16554166 57.52849028 -29.875 55.8125 C-31.40659584 53.34492892 -31.42822025 51.85480169 -31 49 C-29.875 47.1875 -29.875 47.1875 -28 46 C-25 45.625 -25 45.625 -22 46 C-21.56945312 46.49757813 -21.13890625 46.99515625 -20.6953125 47.5078125 C-18.18135597 49.72055765 -16.15728692 49.32909125 -12.875 49.25 C-11.26238281 49.22679687 -11.26238281 49.22679687 -9.6171875 49.203125 C-7.07437051 49.29112761 -7.07437051 49.29112761 -6 48 C-5.84011509 45.48119483 -5.74065775 42.98657734 -5.68359375 40.46484375 C-5.66281265 39.71159317 -5.64203156 38.95834259 -5.62062073 38.18226624 C-5.55504575 35.7674401 -5.49620379 33.35250202 -5.4375 30.9375 C-5.3943223 29.30402471 -5.35070827 27.6705609 -5.30664062 26.03710938 C-5.19935638 22.02485536 -5.09811179 18.01248836 -5 14 C-5.639375 13.71125 -6.27875 13.4225 -6.9375 13.125 C-9 12 -9 12 -10 10 C-10.38932198 6.4182378 -10.43596718 4.63718279 -8.375 1.625 C-5.28813568 -0.48706506 -3.6717087 -0.61195145 0 0 Z " fill="#F44F0D" transform="translate(1011,479)"/>
<path d="M0 0 C3.5625 0.125 3.5625 0.125 7 1 C9 4 9 4 8.8125 7.0625 C8 10 8 10 5 12 C2.5 12.3125 2.5 12.3125 0 12 C-0.58201172 11.25363281 -0.58201172 11.25363281 -1.17578125 10.4921875 C-4.03465718 8.15366372 -7.17087475 8.68444362 -10.6875 8.8125 C-11.7403418 8.83280273 -11.7403418 8.83280273 -12.81445312 8.85351562 C-14.54329829 8.88879818 -16.27174765 8.94260417 -18 9 C-19.11823815 11.23647631 -19.19396061 12.64891529 -19.31640625 15.1328125 C-19.35830078 15.93847656 -19.40019531 16.74414062 -19.44335938 17.57421875 C-19.50233398 18.83685547 -19.50233398 18.83685547 -19.5625 20.125 C-19.60568359 20.97449219 -19.64886719 21.82398438 -19.69335938 22.69921875 C-19.79954236 24.79928223 -19.90028497 26.89961948 -20 29 C-19.38125 29.268125 -18.7625 29.53625 -18.125 29.8125 C-16 31 -16 31 -14 34 C-14.14797709 37.47746165 -14.65359003 39.4937085 -16.625 42.375 C-19.9535616 44.65243688 -22.0508385 44.56416593 -26 44 C-28.4375 42.4375 -28.4375 42.4375 -30 40 C-30.5 36.5 -30.5 36.5 -30 33 C-28.125 30.5625 -28.125 30.5625 -26 29 C-25.34 29 -24.68 29 -24 29 C-24.01047363 28.44538086 -24.02094727 27.89076172 -24.03173828 27.31933594 C-24.07342004 24.79627041 -24.09936438 22.27327747 -24.125 19.75 C-24.14175781 18.87730469 -24.15851562 18.00460937 -24.17578125 17.10546875 C-24.18222656 16.26113281 -24.18867187 15.41679688 -24.1953125 14.546875 C-24.20578613 13.77182617 -24.21625977 12.99677734 -24.22705078 12.19824219 C-23.96607773 9.67157409 -23.36445764 8.13710234 -22 6 C-17.81426346 3.20950897 -13.68033642 3.61257746 -8.8046875 3.52148438 C-4.67192306 3.46700254 -4.67192306 3.46700254 -1.22265625 1.45703125 C-0.81917969 0.97621094 -0.41570313 0.49539063 0 0 Z " fill="#F5500F" transform="translate(924,555)"/>
<path d="M0 0 C0.38414062 0.495 0.76828125 0.99 1.1640625 1.5 C4.40628402 4.14896397 8.98052842 3.3556346 13.01953125 3.26367188 C17.03764322 3.33475579 18.84370504 3.87312527 21.98828125 6.42578125 C24.9333149 10.58780675 24.55267707 14.96799772 24.3125 19.875 C24.28994141 20.75414062 24.26738281 21.63328125 24.24414062 22.5390625 C24.18559748 24.69345007 24.09592783 26.8469531 24 29 C24.61875 29.268125 25.2375 29.53625 25.875 29.8125 C28 31 28 31 30 34 C29.81989972 37.36187193 29.58112046 39.99918142 27.875 42.9375 C24.81547541 44.6712306 22.43182475 44.42145216 19 44 C16.00544352 41.95109294 15.16697343 40.49048445 14 37.0625 C14 34 14 34 15.8125 31.125 C18 29 18 29 20 29 C19.85953745 26.04132082 19.71287776 23.08317736 19.5625 20.125 C19.52318359 19.28324219 19.48386719 18.44148437 19.44335938 17.57421875 C19.40146484 16.76855469 19.35957031 15.96289062 19.31640625 15.1328125 C19.27974854 14.38918457 19.24309082 13.64555664 19.20532227 12.87939453 C19.10044135 10.91135688 19.10044135 10.91135688 18 9 C15.56183415 8.9190277 13.12635616 8.85953028 10.6875 8.8125 C9.99720703 8.78736328 9.30691406 8.76222656 8.59570312 8.73632812 C4.57724285 8.61010187 4.57724285 8.61010187 1.171875 10.484375 C0.78515625 10.98453125 0.3984375 11.4846875 0 12 C-3.3225955 12.59636329 -4.57455503 12.29109393 -7.375 10.375 C-9 8 -9 8 -8.9375 4.875 C-7.39819266 0.15445749 -4.61229441 -0.5765368 0 0 Z " fill="#F5500F" transform="translate(988,555)"/>
<path d="M0 0 C3.42798445 1.16697343 4.88859294 2.00544352 6.9375 5 C6.78925781 6.06347656 6.64101563 7.12695312 6.48828125 8.22265625 C6.55281117 11.93255359 6.55281117 11.93255359 8.5703125 13.75488281 C10.90030766 15.5582494 13.28387441 17.20039502 15.75 18.8125 C16.58337891 19.38419922 17.41675781 19.95589844 18.27539062 20.54492188 C20.48180855 22.05308385 22.7038935 23.53254543 24.9375 25 C25.9275 25.66 26.9175 26.32 27.9375 27 C30.80682163 27.35554057 30.80682163 27.35554057 33.9375 27.3125 C34.989375 27.32925781 36.04125 27.34601563 37.125 27.36328125 C40.2962138 26.95366613 40.93198464 26.35403479 42.9375 24 C45.79230169 23.57177975 47.28242892 23.59340416 49.75 25.125 C51.50752414 27.90003811 51.40572746 29.78929745 50.9375 33 C49.25 34.9375 49.25 34.9375 46.9375 36 C43.56713689 35.75925978 42.34951979 35.41201979 39.9375 33 C38.12822719 32.87512242 36.31353893 32.82429154 34.5 32.8125 C26.461443 32.24788707 21.62039655 28.4746784 15.30615234 23.78955078 C14.16918521 22.95094367 13.02793792 22.11810976 11.88256836 21.29101562 C10.26730867 20.12034203 8.67210341 18.92214503 7.078125 17.72265625 C3.39009988 15.69974695 1.08092788 15.74134664 -3.0625 16 C-6.44281589 14.81232145 -6.99466817 14.10174775 -9.0625 11 C-8.98608894 6.79739166 -8.67037846 4.69471824 -5.875 1.5 C-3.0625 0 -3.0625 0 0 0 Z " fill="#F5510F" transform="translate(903.0625,481)"/>
<path d="M0 0 C3 0.625 3 0.625 5.1484375 3.125 C8.98672126 6.49007069 11.69192806 6.30050927 16.625 6.25 C24.47416201 6.25 24.47416201 6.25 26.9609375 8.0234375 C29.06697105 11.26957944 29.10734177 13.39360811 29.0625 17.25 C29.05347656 18.25289063 29.04445313 19.25578125 29.03515625 20.2890625 C29.02355469 21.05992187 29.01195312 21.83078125 29 22.625 C29.99 22.955 30.98 23.285 32 23.625 C32.495 26.595 32.495 26.595 33 29.625 C28.73933975 33.64219395 28.73933975 33.64219395 25.3125 33.5625 C23 32.625 23 32.625 21 29.625 C20.6875 27.125 20.6875 27.125 21 24.625 C21.49757813 24.18542969 21.99515625 23.74585938 22.5078125 23.29296875 C24.57268174 20.98485575 24.3060168 19.47943127 24.1875 16.4375 C24.125625 14.849375 24.06375 13.26125 24 11.625 C18.39 11.295 12.78 10.965 7 10.625 C6.67 11.945 6.34 13.265 6 14.625 C3.5456939 16.53390474 2.12133987 16.62752791 -1 16.5625 C-4.80766251 15.37260547 -5.98600012 14.03330749 -8 10.625 C-8.5625 8.125 -8.5625 8.125 -8 5.625 C-5.53235541 2.35899981 -4.04381805 0.84246209 0 0 Z " fill="#F55212" transform="translate(937,483.375)"/>
<path d="M0 0 C1.8125 1.1875 1.8125 1.1875 3 3 C3.42822025 5.85480169 3.40659584 7.34492892 1.875 9.8125 C-0.77535957 11.49106106 -2.93246424 11.20450238 -6 11 C-6.66 9.68 -7.32 8.36 -8 7 C-13.94 7.33 -19.88 7.66 -26 8 C-26.33 9.98 -26.66 11.96 -27 14 C-26.360625 14.309375 -25.72125 14.61875 -25.0625 14.9375 C-23 16 -23 16 -22 17 C-21.29880478 24.12881806 -21.29880478 24.12881806 -24.0625 27.5625 C-27.89147772 29.43625505 -29.93334276 29.12962701 -34 28 C-35.9375 26.875 -35.9375 26.875 -37 25 C-37.51940701 20.91894494 -37.67222913 18.87389788 -35.125 15.5625 C-33 14 -33 14 -31 14 C-31.12375 12.39125 -31.12375 12.39125 -31.25 10.75 C-31 7 -31 7 -29.625 4.78125 C-25.5374193 2.00753453 -21.56353626 2.57471717 -16.75 2.75 C-15.81414063 2.76804687 -14.87828125 2.78609375 -13.9140625 2.8046875 C-11.60832985 2.85174327 -9.30469055 2.91746287 -7 3 C-7 2.34 -7 1.68 -7 1 C-4.45132831 -0.27433584 -2.82594567 -0.27570202 0 0 Z " fill="#F44D0B" transform="translate(951,576)"/>
<path d="M0 0 C3.32759923 1.55194754 5.48580485 3.30621949 8 6 C6.63629701 8.99220268 5.05091917 11.29026529 2.875 13.75 C2.33617187 14.36359375 1.79734375 14.9771875 1.2421875 15.609375 C0.83226562 16.06828125 0.42234375 16.5271875 0 17 C0.62390625 17.29648437 1.2478125 17.59296875 1.890625 17.8984375 C4.03797092 19.01982926 5.38095835 20.21905418 7 22 C6.34 23.32 5.68 24.64 5 26 C1.09161134 26 -0.11594107 24.49432124 -3 22 C-7.2742558 23.5830577 -9.26531794 26.50568404 -12 30 C-14.64 28.02 -17.28 26.04 -20 24 C-17.93168103 19.86336206 -15.39235746 16.98945263 -12.25 13.6875 C-11.16574357 12.53211557 -10.0824011 11.37587274 -9 10.21875 C-8.48179688 9.66574219 -7.96359375 9.11273438 -7.4296875 8.54296875 C-4.86112908 5.77089067 -2.42547386 2.89709378 0 0 Z " fill="#4A4A4A" transform="translate(1054,421)"/>
<path d="M0 0 C10.35200661 3.91229681 10.35200661 3.91229681 12.75 7.9375 C13.43513631 16.33041982 9.62304224 23.2213726 5 30 C2.02656106 32.48836522 -0.59986221 33.03500344 -4.5 32.9375 C-7.9272853 31.65226801 -10.87134256 29.90173295 -14 28 C-13.34 26.02 -12.68 24.04 -12 22 C-9.36 22.99 -6.72 23.98 -4 25 C-3.773125 24.21625 -3.54625 23.4325 -3.3125 22.625 C-1.59339067 17.87698375 0.68084721 13.47897448 3 9 C1.35 8.01 -0.3 7.02 -2 6 C-1.125 1.125 -1.125 1.125 0 0 Z " fill="#4B4B4B" transform="translate(1031,407)"/>
<path d="M0 0 C0.66 0.66 1.32 1.32 2 2 C3.93123211 2.19968426 5.8719689 2.31278815 7.8125 2.375 C11.60746499 2.64834682 13.81205056 2.90602528 17.25 4.625 C19.61918861 7.8403274 19.37450951 10.10510108 19 14 C19.61875 14.103125 20.2375 14.20625 20.875 14.3125 C23 15 23 15 25 18 C25.4375 20.875 25.4375 20.875 25 24 C22.51397551 27.36344489 21.08574477 28.80057749 16.9375 29.5625 C13.28744421 28.86355315 12.14435389 28.01797955 10 25 C9 22.0625 9 22.0625 9 19 C10.8125 16.125 10.8125 16.125 13 14 C13.66 14 14.32 14 15 14 C14.67 12.02 14.34 10.04 14 8 C12.22992286 7.91885894 10.45877902 7.86074495 8.6875 7.8125 C7.70136719 7.77769531 6.71523438 7.74289062 5.69921875 7.70703125 C2.56442866 8.04727619 2.01383577 8.7145031 0 11 C-3.18153026 11.39769128 -5.12844028 11.55198782 -7.875 9.8125 C-9.40659584 7.34492892 -9.42822025 5.85480169 -9 3 C-6.73157826 -0.65467947 -4.03373275 -0.4291205 0 0 Z " fill="#F44D0B" transform="translate(967,576)"/>
<path d="M0 0 C2.4375 2.1875 2.4375 2.1875 4 5 C4.08154726 8.99581592 3.50505321 10.46688828 0.75 13.375 C-2.27540925 15.16274183 -3.56933155 15.70372686 -7 15 C-9.3125 13.125 -9.3125 13.125 -11 11 C-11 10.34 -11 9.68 -11 9 C-13.43922361 9.08700798 -15.87478414 9.19386002 -18.3125 9.3125 C-19.34793945 9.34633789 -19.34793945 9.34633789 -20.40429688 9.38085938 C-24.43672895 9.53378258 -24.43672895 9.53378258 -27.7890625 11.5546875 C-28.18867187 12.03164063 -28.58828125 12.50859375 -29 13 C-32.64734979 12.77669287 -34.38372835 12.61627165 -37 10 C-37.375 7.0625 -37.375 7.0625 -37 4 C-35.3125 2.0625 -35.3125 2.0625 -33 1 C-29.62963689 1.24074022 -28.41201979 1.58798021 -26 4 C-23.43083343 4.30599063 -20.95241616 4.51087087 -18.375 4.625 C-17.31539062 4.68300781 -17.31539062 4.68300781 -16.234375 4.7421875 C-14.49001476 4.83647724 -12.74504309 4.91932891 -11 5 C-10.86980469 4.36707031 -10.73960937 3.73414063 -10.60546875 3.08203125 C-10 1 -10 1 -8.3125 -0.3125 C-5.10394236 -1.26639552 -3.19182237 -0.99744449 0 0 Z " fill="#F44D0B" transform="translate(1017,539)"/>
<path d="M0 0 C3.63 0 7.26 0 11 0 C11 10.23 11 20.46 11 31 C7.37 31 3.74 31 0 31 C0 20.77 0 10.54 0 0 Z " fill="#4A4A4A" transform="translate(944,390)"/>
<path d="M0 0 C3.53917262 2.92203816 4.43877658 5.50064293 5.39453125 9.81640625 C5.56662109 10.46351563 5.73871094 11.110625 5.91601562 11.77734375 C7.22461303 17.11943685 6.77661273 21.13633333 4.95703125 26.25390625 C2.18254088 29.28850509 -0.19720573 29.16342661 -4.1796875 29.3984375 C-4.79457031 29.41261719 -5.40945313 29.42679687 -6.04296875 29.44140625 C-6.04296875 27.46140625 -6.04296875 25.48140625 -6.04296875 23.44140625 C-5.05296875 23.44140625 -4.06296875 23.44140625 -3.04296875 23.44140625 C-3.47609375 22.12076172 -3.47609375 22.12076172 -3.91796875 20.7734375 C-4.28921875 19.61199219 -4.66046875 18.45054687 -5.04296875 17.25390625 C-5.41421875 16.10535156 -5.78546875 14.95679688 -6.16796875 13.7734375 C-6.94927428 10.79819813 -7.22660181 8.48856729 -7.04296875 5.44140625 C-8.69296875 5.44140625 -10.34296875 5.44140625 -12.04296875 5.44140625 C-12.37296875 3.46140625 -12.70296875 1.48140625 -13.04296875 -0.55859375 C-8.26260074 -2.02947622 -4.52954278 -2.32000971 0 0 Z " fill="#4C4C4C" transform="translate(934.04296875,394.55859375)"/>
<path d="M0 0 C0.33 1.98 0.66 3.96 1 6 C0.01 6.66 -0.98 7.32 -2 8 C-1.7834375 8.80824219 -1.566875 9.61648438 -1.34375 10.44921875 C-1.0653125 11.51785156 -0.786875 12.58648437 -0.5 13.6875 C-0.2215625 14.74324219 0.056875 15.79898437 0.34375 16.88671875 C0.9391715 19.71142672 1.12786492 22.12836708 1 25 C2.65 24.67 4.3 24.34 6 24 C6.33 25.98 6.66 27.96 7 30 C3.34106879 31.3026127 -0.13857501 32.38599317 -4.015625 31.58203125 C-7.83489615 29.54785423 -8.88953419 27.3065665 -10.35546875 23.23828125 C-13.93147849 10.51805011 -13.93147849 10.51805011 -10.25 3.8125 C-8 1 -8 1 -5.4375 0.125 C-3.62690037 0.03214874 -1.81297886 0 0 0 Z " fill="#4B4B4B" transform="translate(920,395)"/>
<path d="M0 0 C0.721875 0.825 1.44375 1.65 2.1875 2.5 C5.96808848 5.86052309 8.57725721 5.52244102 13.4765625 5.46875 C16.39200407 4.92718191 17.01608441 4.07865314 19 2 C22.625 2.1875 22.625 2.1875 26 3 C27.38125018 5.76250036 27.19079306 7.94731099 27 11 C25 13 25 13 22 13.25 C19 13 19 13 17 11 C14.24193392 10.60331515 14.24193392 10.60331515 11.125 10.625 C10.07570313 10.59664062 9.02640625 10.56828125 7.9453125 10.5390625 C4.33340486 11.10432126 3.41182808 12.36238376 1 15 C-2.94016013 15.56288002 -5.05782196 15.60396028 -8.4375 13.4375 C-10.60396028 10.05782196 -10.56288002 7.94016013 -10 4 C-7.27238925 -0.09141613 -4.79563536 -0.88083098 0 0 Z " fill="#F5500F" transform="translate(905,523)"/>
<path d="M0 0 C4.455 1.98 4.455 1.98 9 4 C8.39368083 7.96149465 7.15202596 10.98723529 5.27734375 14.51953125 C4.73916016 15.54111328 4.20097656 16.56269531 3.64648438 17.61523438 C2.80053711 19.19788086 2.80053711 19.19788086 1.9375 20.8125 C1.36966797 21.88693359 0.80183594 22.96136719 0.21679688 24.06835938 C-1.18314418 26.71530675 -2.58890112 29.35898899 -4 32 C-7.95008059 31.31620454 -10.63457018 30.21156817 -14 28 C-12.60786668 24.35792507 -10.99205189 20.93167328 -9.1796875 17.48046875 C-8.64472656 16.45888672 -8.10976563 15.43730469 -7.55859375 14.38476562 C-7.00300781 13.32966797 -6.44742188 12.27457031 -5.875 11.1875 C-5.31167969 10.11306641 -4.74835937 9.03863281 -4.16796875 7.93164062 C-2.78080182 5.28661895 -1.3914106 2.64279105 0 0 Z " fill="#4A4A4A" transform="translate(1020,401)"/>
<path d="M0 0 C2.375 1.875 2.375 1.875 4 4 C4 4.66 4 5.32 4 6 C4.99 6 5.98 6 7 6 C7.66 4.68 8.32 3.36 9 2 C11.3431213 2.25561323 13.67843403 2.59270772 16 3 C17.38125018 5.76250036 17.19079306 7.94731099 17 11 C15 13 15 13 12 13.1875 C9 13 9 13 7 12 C7 11.34 7 10.68 7 10 C3.91330709 10.74068239 3.91330709 10.74068239 2.25 13.0625 C0 15 0 15 -3.5 15.5625 C-7 15 -7 15 -9.5 12.9375 C-11.46601181 9.08739354 -11.21718491 7.10799908 -10 3 C-7.08550322 -0.34627408 -4.29616198 -0.62652362 0 0 Z " fill="#F44E0C" transform="translate(915,538)"/>
<path d="M0 0 C7.02354132 2.31811462 12.02180737 4.90085275 15.39624023 11.59155273 C19.09322123 19.79623024 19.09322123 19.79623024 18.8203125 23.3203125 C17.50659614 26.01030315 15.42955784 27.34078977 13 29 C12.34 29 11.68 29 11 29 C9.42897511 25.19322741 7.8625157 21.38461236 6.30029297 17.57421875 C5.76802214 16.27780317 5.23449895 14.98190106 4.69970703 13.68652344 C3.93194036 11.82622051 3.16902341 9.96391837 2.40625 8.1015625 C1.94541016 6.98088379 1.48457031 5.86020508 1.00976562 4.70556641 C0 2 0 2 0 0 Z " fill="#4D4D4D" transform="translate(850,435)"/>
<path d="M0 0 C-0.94967585 10.67135755 -1.97970963 21.33521815 -3 32 C-8.29140586 26.78183159 -11.32758003 21.93761699 -11.44433594 14.2590332 C-11.16538969 6.17646754 -11.16538969 6.17646754 -7.9453125 2.92578125 C-2.69734957 0 -2.69734957 0 0 0 Z " fill="#4F4F4F" transform="translate(900,400)"/>
<path d="M0 0 C0.66 0.66 1.32 1.32 2 2 C1.625 4.625 1.625 4.625 1 7 C2.65 7.99 4.3 8.98 6 10 C3.36 15.28 0.72 20.56 -2 26 C-3.65 25.67 -5.3 25.34 -7 25 C-7.99 25 -8.98 25 -10 25 C-11.70532323 26.94009522 -11.70532323 26.94009522 -13 29 C-13.66 28.34 -14.32 27.68 -15 27 C-14.34 27 -13.68 27 -13 27 C-12.78601563 26.23429687 -12.57203125 25.46859375 -12.3515625 24.6796875 C-10.47841358 19.57995836 -7.93045123 14.91160663 -5.375 10.125 C-4.6015625 8.66320312 -4.6015625 8.66320312 -3.8125 7.171875 C-2.54571714 4.77906294 -1.27478682 2.38855464 0 0 Z " fill="#F6F6F6" transform="translate(1029,406)"/>
<path d="M0 0 C0.33 1.32 0.66 2.64 1 4 C2.65 4 4.3 4 6 4 C6.6695256 6.62430124 7.33573718 9.24936657 8 11.875 C8.19078125 12.62136719 8.3815625 13.36773437 8.578125 14.13671875 C10 19.7734375 10 19.7734375 10 22 C9.01 22 8.02 22 7 22 C7 23.65 7 25.3 7 27 C6.34 27.33 5.68 27.66 5 28 C5 26.35 5 24.7 5 23 C3.35 23.33 1.7 23.66 0 24 C-1.32 18.06 -2.64 12.12 -4 6 C-2.68 5.67 -1.36 5.34 0 5 C-0.33 4.01 -0.66 3.02 -1 2 C-0.67 1.34 -0.34 0.68 0 0 Z " fill="#F5F5F5" transform="translate(921,396)"/>
<path d="M0 0 C1.32 0.33 2.64 0.66 4 1 C3.33392561 5.40958108 1.73375271 9.26572186 -0.0625 13.3125 C-0.34416016 13.95767578 -0.62582031 14.60285156 -0.91601562 15.26757812 C-1.6062743 16.84698358 -2.30253198 18.42376493 -3 20 C-2.34 20 -1.68 20 -1 20 C-1 20.66 -1 21.32 -1 22 C-5.74246236 21.05150753 -10.55378451 19.44621549 -14 16 C-13.86812899 12.3735473 -13.70551003 9.90305284 -11.4375 7 C-7.72435451 5.47665826 -4.91787058 6.28172373 -1 7 C0.10636395 4.60931266 0.10636395 4.60931266 1 2 C0.67 1.34 0.34 0.68 0 0 Z " fill="#5D5D5D" transform="translate(909,662)"/>
<path d="M0 0 C0.66 0.99 1.32 1.98 2 3 C4.77838197 6.50953512 7.36606578 9.40212362 11 12 C10.44570313 12.37511719 9.89140625 12.75023437 9.3203125 13.13671875 C3.73667952 16.96437295 3.73667952 16.96437295 1 23 C0.608125 22.443125 0.21625 21.88625 -0.1875 21.3125 C-3.3249873 17.30949897 -6.84163089 13.92625975 -11 11 C-10.0925 10.608125 -9.185 10.21625 -8.25 9.8125 C-3.85233823 7.35995786 -1.59097547 4.77292642 0 0 Z " fill="#F54D0B" transform="translate(818,557)"/>
<path d="M0 0 C0.66 0.99 1.32 1.98 2 3 C4.77838197 6.50953512 7.36606578 9.40212362 11 12 C10.44570312 12.37511719 9.89140625 12.75023437 9.3203125 13.13671875 C3.73667952 16.96437295 3.73667952 16.96437295 1 23 C0.34 22.01 -0.32 21.02 -1 20 C-3.86577039 15.9060423 -6.41079736 13.98170114 -11 12 C-10.01 11.34 -9.02 10.68 -8 10 C-4.01036025 6.98741489 -1.39610402 4.88636408 0 0 Z " fill="#F54D0B" transform="translate(1099,557)"/>
<path d="M0 0 C0.66 0 1.32 0 2 0 C2 0.99 2 1.98 2 3 C5.67986596 3.204437 7.78360346 2.74565111 11 1 C11.12117187 1.85464844 11.24234375 2.70929687 11.3671875 3.58984375 C11.53476562 4.69457031 11.70234375 5.79929687 11.875 6.9375 C12.11863281 8.59072266 12.11863281 8.59072266 12.3671875 10.27734375 C12.68042969 11.62505859 12.68042969 11.62505859 13 13 C13.66 13.33 14.32 13.66 15 14 C5.21321962 16.57995736 5.21321962 16.57995736 1 15 C-0.60725635 11.78548731 -0.05748185 8.56387464 0 5 C-0.66 5 -1.32 5 -2 5 C-1.34 3.35 -0.68 1.7 0 0 Z " fill="#F6F6F6" transform="translate(972,676)"/>
<path d="M0 0 C3.87764779 -0.36071142 5.500132 -0.37199479 8.6875 2 C9.450625 2.66 10.21375 3.32 11 4 C11.99 4 12.98 4 14 4 C12.25 7.875 12.25 7.875 10 9 C9.67 8.01 9.34 7.02 9 6 C6.02827774 3.2332241 5.25809375 3 1 3 C0.67 4.65 0.34 6.3 0 8 C2.97411124 9.23921302 5.85262818 10.30058404 9 11 C7.25 14.875 7.25 14.875 5 16 C5 15.01 5 14.02 5 13 C2.02209492 11.34560829 -0.66177043 10.61449997 -4 10 C-3.48308594 11.09699219 -2.96617188 12.19398438 -2.43359375 13.32421875 C-1.76752084 14.77832158 -1.10219528 16.23276691 -0.4375 17.6875 C-0.09525391 18.40873047 0.24699219 19.12996094 0.59960938 19.87304688 C2.43575214 23.93481724 3.59592878 26.57849239 2 31 C1.01 30.67 0.02 30.34 -1 30 C-0.34 29.67 0.32 29.34 1 29 C0.67 27.02 0.34 25.04 0 23 C-4.98283716 21.85948394 -9.94468132 20.77774134 -15 20 C-13.35 18.35 -11.7 16.7 -10 15 C-10 15.99 -10 16.98 -10 18 C-7.69 18.33 -5.38 18.66 -3 19 C-3.77030122 15.51190809 -3.77030122 15.51190809 -5 12 C-5.99 11.67 -6.98 11.34 -8 11 C-7.50628906 10.37351562 -7.01257812 9.74703125 -6.50390625 9.1015625 C-5.86324219 8.28429687 -5.22257812 7.46703125 -4.5625 6.625 C-3.92441406 5.81289063 -3.28632812 5.00078125 -2.62890625 4.1640625 C-0.97776453 2.10601894 -0.97776453 2.10601894 0 0 Z " fill="#636363" transform="translate(1071,620)"/>
<path d="M0 0 C2.4375 2.125 2.4375 2.125 4 5 C4 8.56090901 3.69349238 10.25697245 1.25 12.875 C-1.52316728 14.26158364 -2.94430168 14.61113966 -6 14 C-8.375 11.875 -8.375 11.875 -10 9 C-9.93572343 5.78617168 -9.53112958 3.83862565 -7.8125 1.125 C-5.02330727 -0.60622307 -3.20853478 -0.52384241 0 0 Z " fill="#616161" transform="translate(997,675)"/>
<path d="M0 0 C1.875 1.0625 1.875 1.0625 3 3 C3.5 6.4375 3.5 6.4375 3 10 C0.875 12.5 0.875 12.5 -2 14 C-5.1875 13.9375 -5.1875 13.9375 -8 13 C-10.32749345 9.50875983 -10.50299316 8.10777749 -10 4 C-7.21052575 -0.0769239 -4.82207542 -0.71818145 0 0 Z " fill="#F7F7F7" transform="translate(942,678)"/>
<path d="M0 0 C0.928125 0.33 1.85625 0.66 2.8125 1 C5.92029291 2.14967004 5.92029291 2.14967004 9 2 C11.18052998 3.48551921 13.02195971 5.24174197 15 7 C13.34807388 11.20490286 11.98771331 11.80982935 8 15 C4.37 11.7 0.74 8.4 -3 5 C-1 1 -1 1 0 0 Z " fill="#4D4D4D" transform="translate(1046,448)"/>
<path d="M0 0 C5.63098876 3.00064027 10.88084541 6.18786361 16 10 C12.53663008 13.05591464 9.6164335 15.23059442 5 16 C2.125 14.875 2.125 14.875 0 12 C-0.42255001 7.96705433 -0.28581749 4.03955386 0 0 Z " fill="#4E4E4E" transform="translate(899,417)"/>
<path d="M0 0 C3.3 0.66 6.6 1.32 10 2 C9.34 4.97 8.68 7.94 8 11 C5.99598989 10.69169075 3.99708656 10.35036606 2 10 C0.82824219 9.79890625 0.82824219 9.79890625 -0.3671875 9.59375 C-1.17414062 9.4390625 -1.98109375 9.284375 -2.8125 9.125 C-3.58207031 8.98320312 -4.35164062 8.84140625 -5.14453125 8.6953125 C-5.75683594 8.46585937 -6.36914062 8.23640625 -7 8 C-8.04449911 4.86650268 -7.93423645 4.01031744 -7 1 C-4.69 1.33 -2.38 1.66 0 2 C0 1.34 0 0.68 0 0 Z " fill="#4E4E4E" transform="translate(996,417)"/>
<path d="M0 0 C5.65020618 0.60108576 10.66164461 2.07528683 16 4 C15.125 10.875 15.125 10.875 14 12 C11.30917128 11.82364548 8.67148554 11.38164079 6 11 C5.67 9.68 5.34 8.36 5 7 C2.03 6.505 2.03 6.505 -1 6 C-0.67 4.02 -0.34 2.04 0 0 Z " fill="#4E4E4E" transform="translate(995,394)"/>
<path d="M0 0 C4.85967024 2.50346649 8.27856704 6.08552441 12 10 C10.79618552 12.49361571 9.54571278 14.68143083 8 17 C4.66670261 15.82884146 2.13594373 14.88352404 0 12 C-0.38218767 10.34385343 -0.71395102 8.67542976 -1 7 C-1.99083967 4.76591887 -1.99083967 4.76591887 -3 3 C-2.01 2.01 -1.02 1.02 0 0 Z " fill="#4C4C4C" transform="translate(1063,429)"/>
<path d="M0 0 C1.32 0.66 2.64 1.32 4 2 C2.02 4.31 0.04 6.62 -2 9 C0.475 10.98 0.475 10.98 3 13 C2.55443866 18.04969516 0.44186399 20.47618687 -3 24 C-3.99 24 -4.98 24 -6 24 C-6.66 23.01 -7.32 22.02 -8 21 C-6.824375 20.319375 -6.824375 20.319375 -5.625 19.625 C-2.09211971 17.46903329 -2.09211971 17.46903329 -0.375 13.875 C-0.25125 13.25625 -0.1275 12.6375 0 12 C-2.33165034 11.66501699 -2.33165034 11.66501699 -5 12 C-7.5769765 14.1352091 -9.13713474 16.20570212 -11 19 C-11.99 17.68 -12.98 16.36 -14 15 C-13.27425781 14.5978125 -12.54851563 14.195625 -11.80078125 13.78125 C-8.88817338 11.92888014 -6.63137883 9.93172023 -4.1875 7.5 C-3.39730469 6.7265625 -2.60710938 5.953125 -1.79296875 5.15625 C0.31968098 3.08293195 0.31968098 3.08293195 0 0 Z " fill="#565656" transform="translate(861,628)"/>
<path d="M0 0 C1.875 1.1875 1.875 1.1875 3 3 C3.1875 5.6875 3.1875 5.6875 3 8 C1.02 8.99 1.02 8.99 -1 10 C-1.61875 9.175 -2.2375 8.35 -2.875 7.5 C-3.926875 6.2625 -3.926875 6.2625 -5 5 C-5.66 5 -6.32 5 -7 5 C-7.34900558 8.71736641 -7.34900558 8.71736641 -5.5 11.8125 C-5.005 12.204375 -4.51 12.59625 -4 13 C-6.28155293 12.60662881 -7.86700007 12.08713789 -9.8125 10.8125 C-11 9 -11 9 -10.9375 6 C-10 3 -10 3 -8.3125 1.125 C-5.30746287 -0.33690996 -3.30322178 -0.42168789 0 0 Z " fill="#626262" transform="translate(842,615)"/>
<path d="M0 0 C2.97 0.495 2.97 0.495 6 1 C6.8125 3 6.8125 3 7 6 C5.58832428 8.84968868 3.85115239 11.41863524 2 14 C2.66 14.33 3.32 14.66 4 15 C2.68 14.67 1.36 14.34 0 14 C0 13.34 0 12.68 0 12 C-1.65 11.67 -3.3 11.34 -5 11 C-5.38218767 9.34385343 -5.71395102 7.67542976 -6 6 C-5 5 -5 5 -2.6875 4.875 C-0.28967362 4.98652681 1.70894512 5.32116892 4 6 C4 5.01 4 4.02 4 3 C2.05990478 1.29467677 2.05990478 1.29467677 0 0 Z " fill="#595959" transform="translate(874,653)"/>
<path d="M0 0 C0 3.96 0 7.92 0 12 C1.98 12 3.96 12 6 12 C5.67 8.37 5.34 4.74 5 1 C6.32 0.67 7.64 0.34 9 0 C9 3.96 9 7.92 9 12 C9.66 12.33 10.32 12.66 11 13 C7.00681626 14.33106125 3.16255487 14.13647721 -1 14 C-2 13 -2 13 -2.09765625 10.71484375 C-2.08025391 9.34005859 -2.08025391 9.34005859 -2.0625 7.9375 C-2.05347656 7.01839844 -2.04445313 6.09929688 -2.03515625 5.15234375 C-2.02355469 4.44207031 -2.01195312 3.73179687 -2 3 C-2.66 3 -3.32 3 -4 3 C-4 2.34 -4 1.68 -4 1 C-1 0 -1 0 0 0 Z " fill="#6E6E6E" transform="translate(958,679)"/>
<path d="M0 0 C1.32 0.33 2.64 0.66 4 1 C4 1.66 4 2.32 4 3 C4.78375 2.95875 5.5675 2.9175 6.375 2.875 C9 3 9 3 11 5 C10.71960953 7.66370951 10.16486685 9.67996434 8.9375 12.0625 C7.70962605 14.24137335 7.70962605 14.24137335 8 18 C5.525 17.01 5.525 17.01 3 16 C3.66 15.67 4.32 15.34 5 15 C5.73080266 13.02253397 6.39421747 11.01927511 7 9 C7.33 8.01 7.66 7.02 8 6 C6.35 5.67 4.7 5.34 3 5 C1.10134397 7.97180943 -0.35455571 10.51460083 -1 14 C-2.32 13.34 -3.64 12.68 -5 12 C-5 11.34 -5 10.68 -5 10 C-4.360625 9.4225 -3.72125 8.845 -3.0625 8.25 C-0.55649582 5.51617726 -0.33019491 3.63214398 0 0 Z " fill="#646464" transform="translate(884,659)"/>
<path d="M0 0 C1.65 3.63 3.3 7.26 5 11 C3.68 11.33 2.36 11.66 1 12 C0.01 9.03 -0.98 6.06 -2 3 C-3.32 3 -4.64 3 -6 3 C-5.8864371 4.64666203 -5.75882619 6.29236082 -5.625 7.9375 C-5.55539062 8.85402344 -5.48578125 9.77054688 -5.4140625 10.71484375 C-5.27742187 11.46894531 -5.14078125 12.22304688 -5 13 C-4.34 13.33 -3.68 13.66 -3 14 C-4.65 14.66 -6.3 15.32 -8 16 C-8.33 12.37 -8.66 8.74 -9 5 C-9.99 5 -10.98 5 -12 5 C-12 4.34 -12 3.68 -12 3 C-7.36785457 0.35305975 -5.65031797 0 0 0 Z " fill="#626262" transform="translate(1013,670)"/>
<path d="M0 0 C2.1875 -0.4375 2.1875 -0.4375 5 0 C6.52536636 1.65103575 7.68720865 3.37453877 8.88671875 5.2734375 C10.0133498 7.15407632 10.0133498 7.15407632 12 9 C10.35 9.66 8.7 10.32 7 11 C6.87625 10.443125 6.7525 9.88625 6.625 9.3125 C5.94023145 6.77885636 5.00866237 4.42078968 4 2 C2.01508358 2.26676204 2.01508358 2.26676204 0 3 C-0.33 3.99 -0.66 4.98 -1 6 C0.73083907 9.22132295 0.73083907 9.22132295 3 12 C3.66 12 4.32 12 5 12 C5 12.66 5 13.32 5 14 C3.35 14.66 1.7 15.32 0 16 C-0.0825 15.443125 -0.165 14.88625 -0.25 14.3125 C-0.915082 11.79414421 -0.915082 11.79414421 -3.0625 9.4375 C-5 7 -5 7 -5 4 C-4.01 4 -3.02 4 -2 4 C-1.34 2.68 -0.68 1.36 0 0 Z " fill="#595959" transform="translate(1036,655)"/>
<path d="M0 0 C3.87764779 -0.36071142 5.500132 -0.37199479 8.6875 2 C9.450625 2.66 10.21375 3.32 11 4 C11.99 4 12.98 4 14 4 C12.25 7.875 12.25 7.875 10 9 C9.67 8.01 9.34 7.02 9 6 C6.02827774 3.2332241 5.25809375 3 1 3 C0.67 4.65 0.34 6.3 0 8 C2.97411124 9.23921302 5.85262818 10.30058404 9 11 C7.25 14.875 7.25 14.875 5 16 C5 15.01 5 14.02 5 13 C4.38125 12.690625 3.7625 12.38125 3.125 12.0625 C1.75 11.375 0.375 10.6875 -1 10 C-1 9.34 -1 8.68 -1 8 C-1.66 7.67 -2.32 7.34 -3 7 C-2.01 4.69 -1.02 2.38 0 0 Z " fill="#595959" transform="translate(1071,620)"/>
<path d="M0 0 C1.875 1.0625 1.875 1.0625 3 3 C3.5 6.4375 3.5 6.4375 3 10 C0.875 12.5 0.875 12.5 -2 14 C-5.1875 13.9375 -5.1875 13.9375 -8 13 C-10.32749345 9.50875983 -10.50299316 8.10777749 -10 4 C-7.21052575 -0.0769239 -4.82207542 -0.71818145 0 0 Z M-6 2 C-8.14915785 5.22373677 -8.38286803 6.26703674 -8 10 C-6.17084359 12.23845015 -6.17084359 12.23845015 -3.5 12.3125 C-2.675 12.209375 -1.85 12.10625 -1 12 C1.14915785 8.77626323 1.38286803 7.73296326 1 4 C-0.82915641 1.76154985 -0.82915641 1.76154985 -3.5 1.6875 C-4.325 1.790625 -5.15 1.89375 -6 2 Z " fill="#5F5F5F" transform="translate(942,678)"/>
<path d="M0 0 C2.5625 0.1875 2.5625 0.1875 4.5625 2.1875 C4.75 5.75 4.75 5.75 4.5625 9.1875 C3.5625 10.1875 3.5625 10.1875 1.125 10.375 C-1.4375 10.1875 -1.4375 10.1875 -3.4375 8.1875 C-3.625 4.625 -3.625 4.625 -3.4375 1.1875 C-2.4375 0.1875 -2.4375 0.1875 0 0 Z " fill="#FAFAFA" transform="translate(993.4375,676.8125)"/>
<path d="M0 0 C2.33944736 0.28730055 4.6739143 0.61936779 7 1 C6.44271087 4.34373475 5.64826111 7.03312999 4 10 C-0.875 9.125 -0.875 9.125 -2 8 C-1.28 1.28 -1.28 1.28 0 0 Z " fill="#F7F7F7" transform="translate(900,670)"/>
<path d="M0 0 C1.32 0 2.64 0 4 0 C4.18451025 13.6332574 4.18451025 13.6332574 3 20 C3.66 20 4.32 20 5 20 C5 20.66 5 21.32 5 22 C3.02 22 1.04 22 -1 22 C-1 21.34 -1 20.68 -1 20 C-0.34 20 0.32 20 1 20 C0.67 13.4 0.34 6.8 0 0 Z " fill="#6E6E6E" transform="translate(948,671)"/>
<path d="M0 0 C0.99 0 1.98 0 3 0 C3 0.66 3 1.32 3 2 C2.01 2 1.02 2 0 2 C0 4.31 0 6.62 0 9 C2.64 9 5.28 9 8 9 C8.33 7.35 8.66 5.7 9 4 C9.66 4 10.32 4 11 4 C10.6875 7.375 10.6875 7.375 10 11 C7 13 7 13 3.5 12.9375 C0 12 0 12 -2 9.75 C-3.14744024 6.59453933 -3.10389566 5.14185689 -2 2 C-1.34 1.34 -0.68 0.68 0 0 Z " fill="#676767" transform="translate(1080,607)"/>
<path d="M0 0 C1.32 0 2.64 0 4 0 C3.67 0.66 3.34 1.32 3 2 C2.01 2.33 1.02 2.66 0 3 C0 3.66 0 4.32 0 5 C0.62648438 4.90460937 1.25296875 4.80921875 1.8984375 4.7109375 C2.71570312 4.60007812 3.53296875 4.48921875 4.375 4.375 C5.59316406 4.20097656 5.59316406 4.20097656 6.8359375 4.0234375 C7.55007813 4.01570312 8.26421875 4.00796875 9 4 C9.66 4.66 10.32 5.32 11 6 C10.83584208 9.20107939 10.40941172 10.59058828 8.125 12.875 C7.42375 13.24625 6.7225 13.6175 6 14 C5.01 13.67 4.02 13.34 3 13 C3.33 12.34 3.66 11.68 4 11 C4.66 10.855625 5.32 10.71125 6 10.5625 C6.99 10.2840625 6.99 10.2840625 8 10 C8.33 9.01 8.66 8.02 9 7 C7.93458984 7.12568359 7.93458984 7.12568359 6.84765625 7.25390625 C5.92855469 7.35574219 5.00945312 7.45757813 4.0625 7.5625 C2.68771484 7.71912109 2.68771484 7.71912109 1.28515625 7.87890625 C0.53105469 7.91886719 -0.22304687 7.95882812 -1 8 C-2 7 -2 7 -2.1875 4.5625 C-2 2 -2 2 0 0 Z " fill="#595959" transform="translate(1053,641)"/>
<path d="M0 0 C0 0.99 0 1.98 0 3 C-2.475 2.01 -2.475 2.01 -5 1 C-3.63016497 4.16115776 -3.0109362 4.9927092 0 7 C0.25 9.5625 0.25 9.5625 0 12 C-1 13 -1 13 -3.875 13.25 C-7 13 -7 13 -8.875 11.5 C-9.24625 11.005 -9.6175 10.51 -10 10 C-9.34 9.34 -8.68 8.68 -8 8 C-7.01 9.485 -7.01 9.485 -6 11 C-5.01 11 -4.02 11 -3 11 C-4.01889939 8.72707059 -4.80902631 7.16975439 -6.6875 5.5 C-7.120625 5.005 -7.55375 4.51 -8 4 C-7.8125 1.875 -7.8125 1.875 -7 0 C-4.3333581 -1.33332095 -2.83319697 -0.67102033 0 0 Z " fill="#5D5D5D" transform="translate(929,676)"/>
<path d="M0 0 C1.9375 1.3125 1.9375 1.3125 3 3 C2.6875 5.1875 2.6875 5.1875 2 7 C1.34 5.68 0.68 4.36 0 3 C-2.91652174 2.83318891 -2.91652174 2.83318891 -6 3 C-6.66 3.66 -7.32 4.32 -8 5 C-7.67958603 7.60280568 -7.67958603 7.60280568 -7 10 C-6.01 10.33 -5.02 10.66 -4 11 C-4 11.66 -4 12.32 -4 13 C-6.91517292 11.92598892 -8.77810176 11.22189824 -11 9 C-10.86546607 5.30031689 -10.74028572 2.87737566 -8.3125 0 C-5.12832007 -1.37694267 -3.29075199 -0.980224 0 0 Z " fill="#676767" transform="translate(851,627)"/>
<path d="M0 0 C2.625 0.375 2.625 0.375 5 1 C5.625 3.375 5.625 3.375 6 6 C5.34 6.66 4.68 7.32 4 8 C1.375 7.625 1.375 7.625 -1 7 C-1.625 4.625 -1.625 4.625 -2 2 C-1.34 1.34 -0.68 0.68 0 0 Z " fill="#FDEDE7" transform="translate(1011,542)"/>
<path d="M0 0 C2.625 0.375 2.625 0.375 5 1 C5.625 3.375 5.625 3.375 6 6 C5.34 6.66 4.68 7.32 4 8 C1.375 7.625 1.375 7.625 -1 7 C-1.625 4.625 -1.625 4.625 -2 2 C-1.34 1.34 -0.68 0.68 0 0 Z " fill="#FDEBE4" transform="translate(900,485)"/>
<path d="M0 0 C0.66 0 1.32 0 2 0 C2 0.99 2 1.98 2 3 C3.32 3.33 4.64 3.66 6 4 C4.68 4 3.36 4 2 4 C2.33 7.3 2.66 10.6 3 14 C4.32 14.33 5.64 14.66 7 15 C5.35 15.33 3.7 15.66 2 16 C-0.67927341 11.98108988 -0.15601248 9.75838077 0 5 C-0.66 5 -1.32 5 -2 5 C-1.34 3.35 -0.68 1.7 0 0 Z " fill="#575757" transform="translate(972,676)"/>
<path d="M0 0 C1.65 0 3.3 0 5 0 C5 0.66 5 1.32 5 2 C4.34 2 3.68 2 3 2 C3.66 3.65 4.32 5.3 5 7 C4.34 7 3.68 7 3 7 C2.67 6.34 2.34 5.68 2 5 C1.071875 5.309375 0.14375 5.61875 -0.8125 5.9375 C-2.875 6.625 -4.9375 7.3125 -7 8 C-6.34 9.65 -5.68 11.3 -5 13 C-6.32 12.01 -7.64 11.02 -9 10 C-8.9375 8.25 -8.9375 8.25 -8 6 C-5.76067964 4.47043965 -3.39572437 3.28342377 -1 2 C-0.67 1.34 -0.34 0.68 0 0 Z " fill="#5D5D5D" transform="translate(835,605)"/>
<path d="M0 0 C0.598125 0.226875 1.19625 0.45375 1.8125 0.6875 C2.4375 3.0625 2.4375 3.0625 2.8125 5.6875 C2.1525 6.3475 1.4925 7.0075 0.8125 7.6875 C-1.8125 7.3125 -1.8125 7.3125 -4.1875 6.6875 C-4.875 4.875 -4.875 4.875 -5.1875 2.6875 C-3.58493056 0.24147296 -2.95482043 -0.4221172 0 0 Z " fill="#FEF0EB" transform="translate(985.1875,593.3125)"/>
<path d="M0 0 C1.65 0.33 3.3 0.66 5 1 C5.625 3.375 5.625 3.375 6 6 C5.34 6.66 4.68 7.32 4 8 C1.375 7.625 1.375 7.625 -1 7 C-1.625 5.1875 -1.625 5.1875 -2 3 C-1.34 2.01 -0.68 1.02 0 0 Z " fill="#FEEFE9" transform="translate(935,488)"/>
<path d="M0 0 C3.71888239 0.50712033 6.73454239 1.11608215 10 3 C9.649375 3.53625 9.29875 4.0725 8.9375 4.625 C7.71075751 7.73274763 8.27143569 9.79431703 9 13 C8.01 13.495 8.01 13.495 7 14 C6.16209211 12.21046815 5.32980604 10.41830305 4.5 8.625 C3.80390625 7.12839844 3.80390625 7.12839844 3.09375 5.6015625 C2 3 2 3 2 1 C1.34 0.67 0.68 0.34 0 0 Z " fill="#EEEEEE" transform="translate(860,440)"/>
<path d="M0 0 C2.125 0.9375 2.125 0.9375 4 2 C4 3.65 4 5.3 4 7 C1.625 7.625 1.625 7.625 -1 8 C-1.66 7.34 -2.32 6.68 -3 6 C-2.75 3.4375 -2.75 3.4375 -2 1 C-1.34 0.67 -0.68 0.34 0 0 Z " fill="#FEF6F3" transform="translate(921,593)"/>
<path d="M0 0 C2.5 0.125 2.5 0.125 3.5 1.125 C3.625 3.625 3.625 3.625 3.5 6.125 C2.5 7.125 2.5 7.125 0 7.25 C-2.5 7.125 -2.5 7.125 -3.5 6.125 C-3.625 3.625 -3.625 3.625 -3.5 1.125 C-2.5 0.125 -2.5 0.125 0 0 Z " fill="#FEF6F3" transform="translate(1010.5,587.875)"/>
<path d="M0 0 C2.5 0.125 2.5 0.125 3.5 1.125 C3.625 3.625 3.625 3.625 3.5 6.125 C2.5 7.125 2.5 7.125 0 7.25 C-2.5 7.125 -2.5 7.125 -3.5 6.125 C-3.625 3.625 -3.625 3.625 -3.5 1.125 C-2.5 0.125 -2.5 0.125 0 0 Z " fill="#FEF8F6" transform="translate(911.5,541.875)"/>
<path d="M0 0 C1.2065625 0.0309375 1.2065625 0.0309375 2.4375 0.0625 C2.81883299 2.0539056 3.15075582 4.05529077 3.4375 6.0625 C2.4375 7.0625 2.4375 7.0625 -0.0625 7.1875 C-2.5625 7.0625 -2.5625 7.0625 -3.5625 6.0625 C-3.6875 3.5625 -3.6875 3.5625 -3.5625 1.0625 C-2.5625 0.0625 -2.5625 0.0625 0 0 Z " fill="#FEF8F6" transform="translate(902.5625,526.9375)"/>
<path d="M0 0 C1.66611905 -0.042721 3.33382885 -0.04063832 5 0 C6 1 6 1 6.0625 3.5625 C6.041875 4.366875 6.02125 5.17125 6 6 C3.625 6.625 3.625 6.625 1 7 C0.34 6.34 -0.32 5.68 -1 5 C-0.625 2.375 -0.625 2.375 0 0 Z " fill="#FEFAF9" transform="translate(899,588)"/>
<path d="M0 0 C1.70271281 2.7243405 2.18972259 5.04523601 2.5 8.1875 C2.665 9.445625 2.83 10.70375 3 12 C3.66 12.33 4.32 12.66 5 13 C3.02 13.33 1.04 13.66 -1 14 C-1 10.37 -1 6.74 -1 3 C-1.66 2.67 -2.32 2.34 -3 2 C-2.01 1.34 -1.02 0.68 0 0 Z " fill="#636363" transform="translate(982,677)"/>
<path d="M0 0 C0.99 0 1.98 0 3 0 C2.55443866 5.04969516 0.44186399 7.47618687 -3 11 C-3.99 11 -4.98 11 -6 11 C-6.66 10.01 -7.32 9.02 -8 8 C-6.8553125 7.4121875 -6.8553125 7.4121875 -5.6875 6.8125 C-2.73714585 4.82272627 -1.78657299 3.00469094 0 0 Z " fill="#6F6F6F" transform="translate(861,641)"/>
<path d="M0 0 C0.66 0 1.32 0 2 0 C2.33773438 0.62648438 2.67546875 1.25296875 3.0234375 1.8984375 C3.46945312 2.71570313 3.91546875 3.53296875 4.375 4.375 C4.81585937 5.18710937 5.25671875 5.99921875 5.7109375 6.8359375 C6.9443893 9.10814302 6.9443893 9.10814302 9 11 C7.35 11.66 5.7 12.32 4 13 C3.87625 12.2575 3.7525 11.515 3.625 10.75 C2.62802816 6.36332389 1.80009038 4.53339359 -2 2 C-1.34 1.34 -0.68 0.68 0 0 Z " fill="#585858" transform="translate(1025,662)"/>
<path d="M0 0 C1.65 0.33 3.3 0.66 5 1 C5 2.65 5 4.3 5 6 C3.125 6.625 3.125 6.625 1 7 C0.34 6.34 -0.32 5.68 -1 5 C-0.625 2.375 -0.625 2.375 0 0 Z " fill="#FEF0EB" transform="translate(1006,483)"/>
<path d="M0 0 C-2 2 -2 2 -4.625 2.125 C-5.40875 2.08375 -6.1925 2.0425 -7 2 C-7.268125 2.969375 -7.53625 3.93875 -7.8125 4.9375 C-8.204375 5.948125 -8.59625 6.95875 -9 8 C-9.99 8.33 -10.98 8.66 -12 9 C-11.52 2.64 -11.52 2.64 -9.375 0 C-6.01155688 -1.41618658 -3.50376557 -0.74118118 0 0 Z " fill="#6A6A6A" transform="translate(907,669)"/>
<path d="M0 0 C0.66 0.33 1.32 0.66 2 1 C1.57024157 3.57855061 1.14005508 5.72812837 -0.0625 8.0625 C-1.29037395 10.24137335 -1.29037395 10.24137335 -1 14 C-3.475 13.01 -3.475 13.01 -6 12 C-5.34 11.67 -4.68 11.34 -4 11 C-3.27954236 9.0187415 -2.61998741 7.01495907 -2 5 C-1.34588315 3.32836805 -0.68346682 1.65984798 0 0 Z " fill="#5A5A5A" transform="translate(893,663)"/>
<path d="M0 0 C0.86625 0.37125 0.86625 0.37125 1.75 0.75 C1.110625 0.935625 0.47125 1.12125 -0.1875 1.3125 C-2.63164833 2.68198035 -2.63164833 2.68198035 -3.125 6.1875 C-3.60062805 9.85622176 -3.60062805 9.85622176 -1.25 12.75 C-3.1875 12.375 -3.1875 12.375 -5.25 11.75 C-6.67041821 8.90916359 -6.56452272 6.89522722 -6.25 3.75 C-3.29485488 -0.36609499 -3.29485488 -0.36609499 0 0 Z " fill="#515151" transform="translate(938.25,678.25)"/>
<path d="M0 0 C0.33 4.29 0.66 8.58 1 13 C0.01 13 -0.98 13 -2 13 C-2 9.7 -2 6.4 -2 3 C-2.66 3 -3.32 3 -4 3 C-4 2.34 -4 1.68 -4 1 C-1 0 -1 0 0 0 Z " fill="#565656" transform="translate(958,679)"/>
<path d="M0 0 C0.33 0 0.66 0 1 0 C1.25 2.3125 1.25 2.3125 1 5 C-1.12791162 7.2855347 -2.47408328 7.92303658 -5.5625 8.375 C-8 8 -8 8 -9.8125 6.625 C-11 5 -11 5 -11 3 C-10.443125 3.33 -9.88625 3.66 -9.3125 4 C-6.69715478 5.1309601 -4.8193354 5.15662974 -2 5 C-1.34 3.35 -0.68 1.7 0 0 Z " fill="#515151" transform="translate(999,681)"/>
<path d="M0 0 C1.65 0.33 3.3 0.66 5 1 C5.8125 2.6875 5.8125 2.6875 6 5 C3.5625 7.75 3.5625 7.75 1 10 C0.01 9.67 -0.98 9.34 -2 9 C-1.67 8.34 -1.34 7.68 -1 7 C-0.34 6.855625 0.32 6.71125 1 6.5625 C1.99 6.2840625 1.99 6.2840625 3 6 C3.33 5.01 3.66 4.02 4 3 C3.01 2.67 2.02 2.34 1 2 C0.67 1.34 0.34 0.68 0 0 Z " fill="#686868" transform="translate(1058,645)"/>
<path d="M0 0 C2.97 0.495 2.97 0.495 6 1 C6.6875 3.25 6.6875 3.25 7 6 C5.5625 8.3125 5.5625 8.3125 4 10 C3.34 9.67 2.68 9.34 2 9 C2.66 8.01 3.32 7.02 4 6 C4 5.01 4 4.02 4 3 C2.05990478 1.29467677 2.05990478 1.29467677 0 0 Z " fill="#525252" transform="translate(874,653)"/>
<path d="M0 0 C1.65 0 3.3 0 5 0 C4.67 1.32 4.34 2.64 4 4 C2.68 4.33 1.36 4.66 0 5 C-0.33 4.01 -0.66 3.02 -1 2 C-0.67 1.34 -0.34 0.68 0 0 Z " fill="#ECECEC" transform="translate(1057,648)"/>
<path d="M0 0 C0.28875 1.11375 0.5775 2.2275 0.875 3.375 C1.69241329 7.00291092 1.69241329 7.00291092 4 9 C0.76912579 8.44295272 -1.02361137 7.66812465 -3 5 C-3 3.68 -3 2.36 -3 1 C-1 0 -1 0 0 0 Z " fill="#666666" transform="translate(834,619)"/>
<path d="M0 0 C2.475 0.99 2.475 0.99 5 2 C4.67 2.99 4.34 3.98 4 5 C2.35 4.67 0.7 4.34 -1 4 C-0.67 2.68 -0.34 1.36 0 0 Z " fill="#E5E5E5" transform="translate(871,659)"/>
<path d="M0 0 C0.33 0.99 0.66 1.98 1 3 C1.99 3.33 2.98 3.66 4 4 C4 4.66 4 5.32 4 6 C1.36 5.67 -1.28 5.34 -4 5 C-2.68 3.35 -1.36 1.7 0 0 Z " fill="#686868" transform="translate(1060,635)"/>
<path d="M0 0 C2.31 0.33 4.62 0.66 7 1 C5.25 4.875 5.25 4.875 3 6 C3 5.01 3 4.02 3 3 C2.01 2.67 1.02 2.34 0 2 C0 1.34 0 0.68 0 0 Z " fill="#636363" transform="translate(1073,630)"/>
<path d="M0 0 C2.475 0.495 2.475 0.495 5 1 C4.67 2.65 4.34 4.3 4 6 C2.62437146 4.71034824 1.29233607 3.37310707 0 2 C0 1.34 0 0.68 0 0 Z " fill="#F1F1F1" transform="translate(838,617)"/>
<path d="M0 0 C0.66 0 1.32 0 2 0 C2 0.99 2 1.98 2 3 C3.32 3.33 4.64 3.66 6 4 C3.36 4.33 0.72 4.66 -2 5 C-1.34 3.35 -0.68 1.7 0 0 Z " fill="#656565" transform="translate(972,676)"/>
<path d="M0 0 C2.0625 1.75 2.0625 1.75 4 4 C3.875 6.1875 3.875 6.1875 3 8 C2.01 8.495 2.01 8.495 1 9 C0.67 6.03 0.34 3.06 0 0 Z " fill="#6A6A6A" transform="translate(997,676)"/>
<path d="M0 0 C-0.804375 0.28875 -1.60875 0.5775 -2.4375 0.875 C-5.1326468 1.73262568 -5.1326468 1.73262568 -6 4 C-6.66 4 -7.32 4 -8 4 C-5.97675095 -0.48005146 -4.79569304 -1.43870791 0 0 Z " fill="#535353" transform="translate(840,616)"/>
<path d="M0 0 C0.99 0.33 1.98 0.66 3 1 C4.1875 3.5625 4.1875 3.5625 5 6 C3.68 6.33 2.36 6.66 1 7 C0.67 4.69 0.34 2.38 0 0 Z " fill="#555555" transform="translate(1013,675)"/>
<path d="M0 0 C0.5775 0.78375 1.155 1.5675 1.75 2.375 C3.82897637 4.80047244 5.09040333 5.85694417 8 7 C5.125 7.125 5.125 7.125 2 7 C0 5 0 5 -0.125 2.375 C-0.08375 1.59125 -0.0425 0.8075 0 0 Z " fill="#4D4D4D" transform="translate(896,674)"/>
</svg>
